<svg width="89" height="89" viewBox="0 0 89 89" fill="none" xmlns="http://www.w3.org/2000/svg">
<path d="M10.6373 45.5636C11.0073 39.2775 9.70681 31.9757 16.3801 28.5887C26.8063 23.2966 38.135 18.2054 48.9171 13.6863C54.0125 11.5494 60.4812 14.6996 65.0188 17.1293C66.2772 15.4262 68.8585 11.6923 71.8603 13.9427C72.6815 14.5603 72.6394 15.8995 72.6226 16.9111C71.4455 18.0706 69.0519 17.3754 68.4998 19.1318C69.0323 20.5878 71.1596 21.6671 72.1798 22.8533C77.9226 29.5294 77.2807 35.2889 77.0986 43.2291C76.8351 43.3614 76.5772 43.5018 76.3222 43.6503C75.1058 44.3547 73.6148 45.6286 73.2448 47.0112C73.427 47.7678 73.2532 47.5441 73.825 47.9062C77.9983 46.0694 82.7041 37.4533 87.4911 44.5865C90.448 48.9957 80.3722 55.9408 77.1406 57.9384C77.2835 72.7775 77.8805 75.9518 61.9498 77.3761C61.7088 78.4404 61.7032 79.0605 61.6611 80.1441C61.6079 81.6101 61.378 81.5958 62.003 82.6811C63.7604 83.9637 67.9084 83.8266 68.3372 85.4566C66.9723 87.0385 60.4111 87.966 58.4155 88.0035C47.0084 88.2176 31.3467 89.8479 20.8169 85.3278C23.6588 83.9533 29.8389 82.9765 30.8955 81.6432L30.9515 80.8844L30.2172 78.0326C17.4816 76.1395 9.79932 79.7473 10.8616 62.5135C10.9372 61.2722 10.8672 59.5485 10.87 58.2517C7.85423 55.586 0.180336 50.7728 0.00376338 46.5477C-0.0438831 45.4198 0.362519 44.3203 1.13047 43.4914C4.39846 39.9691 8.18773 43.047 10.6373 45.5636Z" fill="#080B09"/>
<path d="M48.8162 79.8156C50.7305 87.7157 57.0759 88.2969 60.8792 81.5788C61.1454 81.1038 61.4061 80.6257 61.6611 80.1441C61.6079 81.6101 61.3781 81.5958 62.0031 82.6811C63.7604 83.9637 67.9084 83.8266 68.3372 85.4566C66.9723 87.0385 60.4111 87.966 58.4156 88.0035C47.0084 88.2176 31.3468 89.8479 20.8169 85.3277C23.6589 83.9533 29.8389 82.9765 30.8955 81.6432L30.9516 80.8844C33.844 87.0811 39.4915 88.5371 42.6866 81.7119C43.6844 82.4665 47.0308 82.5068 48.1856 81.8976C48.9984 81.4683 48.7826 80.6061 48.8162 79.8156Z" fill="#E0E3E5"/>
<path d="M43.2331 78.6872C44.6962 78.7068 47.2046 78.2854 48.4574 78.8856C48.648 78.9767 48.7349 79.5301 48.8162 79.8156C48.7825 80.6061 48.9983 81.4684 48.1855 81.8976C47.0308 82.5068 43.6844 82.4665 42.6866 81.7119C42.8968 80.8073 43.0678 79.6243 43.2331 78.6872Z" fill="white"/>
<path d="M18.8213 28.4601C21.91 26.4857 47.3335 14.9566 51.1284 14.2328C55.6268 13.375 60.8287 15.8034 64.4835 18.2255C64.1303 19.4663 63.7604 20.6721 64.2537 21.9011C66.9443 23.4544 69.1416 18.9617 73.6512 26.8839C76.056 30.3157 76.0139 37.9846 76.0476 42.1946C74.9405 43.063 73.8446 43.9451 72.7571 44.8409C72.2807 47.142 71.8883 49.4667 73.27 51.591C74.2286 52.3753 74.9517 52.9164 75.9747 53.6142C76.0111 58.0685 76.9388 70.0432 73.8502 73.1785C70.0609 77.0242 46.5992 77.616 40.3968 77.5176C35.2986 77.4366 21.3998 76.8075 17.1285 75.5432C16.0242 75.2165 14.8919 74.6404 14.0819 73.8107C13.3644 73.0773 13.0365 72.3328 12.7366 71.3705C12.7086 71.2837 12.6806 71.1977 12.6525 71.1111C12.6357 71.0589 12.6217 71.0063 12.6077 70.9539C11.9518 68.298 12.0864 61.938 12.0976 58.9834C16.0522 56.7618 15.7916 54.7558 14.8891 50.6543C13.8829 49.5015 13.3083 49.147 12.0415 48.2587C12.0471 44.0642 11.9042 37.9583 12.8543 34.0056C13.7848 31.1076 16.226 29.6813 18.8213 28.4601Z" fill="#EAB448"/>
<path d="M18.8213 28.4601C21.9099 26.4857 47.3335 14.9566 51.1284 14.2328C55.6268 13.375 60.8287 15.8034 64.4835 18.2255C64.1303 19.4663 63.7604 20.6721 64.2536 21.9011C66.9443 23.4544 69.1416 18.9617 73.6512 26.8839C72.802 28.0729 72.5245 28.2074 71.2325 28.9351C70.7168 28.9721 70.0329 28.9379 69.5004 28.9286C61.1006 28.9452 53.7154 29.9111 45.3996 30.6996C42.2494 30.998 34.4578 31.8286 31.5429 31.4203C28.8915 27.2336 25.9235 29.6429 22.9806 31.8729C22.4144 31.9121 20.5926 31.9662 20.2003 32.2144C19.55 32.2895 17.9356 32.442 17.3947 32.5975C18.2636 30.9196 18.9559 30.2403 18.8213 28.4601Z" fill="#FCD277"/>
<path d="M49.273 19.4179C48.2781 16.6995 54.5898 17.423 55.9267 17.5387C57.0506 17.8055 56.8152 17.5861 57.5383 18.3331C57.6672 21.1613 50.3997 21.107 49.273 19.4179Z" fill="#EAB448"/>
<path d="M49.273 19.4179C48.2781 16.6995 54.5898 17.423 55.9267 17.5387L55.7277 17.94C53.9424 18.0299 51.3387 17.5289 50.0438 18.8541C49.8504 19.0516 49.5225 19.3002 49.273 19.4179Z" fill="#CC9535"/>
<path d="M37.339 24.2277C39.1075 24.0871 40.663 23.9223 41.6244 25.6737L41.4086 26.2506C40.6602 26.9164 39.996 26.9453 39.0206 27.1137C37.2605 27.1369 35.0884 27.4452 34.2083 25.5929L34.5615 24.9798C35.5592 24.311 36.1422 24.3393 37.339 24.2277Z" fill="#EAB448"/>
<path d="M62.4487 23.3201C63.41 23.4193 64.1556 23.5011 64.6685 24.3889C64.3209 24.8532 64.4302 24.7041 63.6511 24.8291C62.6253 24.8364 61.7144 24.9734 60.924 24.3651C61.3584 23.6228 61.5462 23.7242 62.4487 23.3201Z" fill="#C2862B"/>
<path d="M73.27 51.591C74.2286 52.3753 74.9517 52.9164 75.9747 53.6142C76.0111 58.0684 76.9388 70.0432 73.8502 73.1785C70.0609 77.0241 46.5992 77.616 40.3968 77.5176C35.2986 77.4366 21.3998 76.8075 17.1285 75.5432C16.0242 75.2165 14.8919 74.6404 14.0819 73.8106C13.3644 73.0773 13.0365 72.3328 12.7366 71.3705C12.7086 71.2837 12.6805 71.1976 12.6525 71.1111C12.6357 71.0589 12.6217 71.0063 12.6077 70.9539C15.5309 71.1326 20.786 72.875 24.7547 73.1841C37.8351 74.2032 55.6521 74.6953 67.8439 69.9339C72.5609 68.092 72.0452 55.9453 73.2084 51.8048L73.27 51.591Z" fill="#CC9535"/>
<path d="M31.5429 31.4203C34.4578 31.8286 42.2494 30.998 45.3996 30.6996C53.7154 29.9111 61.1006 28.9452 69.5004 28.9286C67.2217 30.5211 37.7426 31.5453 31.9101 32.6384C29.1102 36.1654 26.8708 37.3802 23.5804 33.2075C21.8371 33.0094 18.4513 33.1924 17.3947 32.5975C17.9356 32.442 19.55 32.2895 20.2003 32.2144C20.5926 31.9661 22.4144 31.9121 22.9806 31.8728C25.9235 29.6429 28.8915 27.2336 31.5429 31.4203Z" fill="#C2862B"/>
<path d="M22.9806 31.8728C25.9235 29.6429 28.8915 27.2336 31.5429 31.4203C31.4841 31.4769 31.4252 31.5338 31.3636 31.5904C28.8691 37.0661 26.7306 34.7237 22.7535 32.3512C22.4649 32.1791 20.7916 32.2041 20.2003 32.2144C20.5926 31.9662 22.4144 31.9121 22.9806 31.8728Z" fill="#EAB448"/>
<path d="M73.6512 26.8839C76.056 30.3157 76.0139 37.9846 76.0476 42.1946C74.9405 43.0629 73.8446 43.9451 72.7572 44.8409C72.6198 44.0297 72.6675 41.0852 72.6703 40.0565C72.6815 35.758 72.4545 33.0043 71.2325 28.9351C72.5245 28.2073 72.802 28.0728 73.6512 26.8839Z" fill="#CC9535"/>
<path d="M18.8213 28.4601C18.9559 30.2403 18.2636 30.9196 17.3947 32.5975C15.7047 33.108 14.4379 34.411 13.3588 34.2903L12.8543 34.0056C13.7848 31.1076 16.226 29.6813 18.8213 28.4601Z" fill="#F8CB72"/>
<path d="M41.2544 57.6428C40.1445 56.4073 39.1495 54.8135 39.9707 53.165C42.2017 50.907 53.2333 50.5394 48.9675 56.7652C46.4422 59.4132 44.2953 59.5219 41.2544 57.6428Z" fill="#353A3B"/>
<path d="M41.7056 56.694C41.6075 56.3746 41.6468 56.1694 41.6524 55.8265C42.3138 55.1035 43.6059 54.846 44.5953 54.5456L48.222 55.6631L48.9675 56.7652C46.4423 59.4132 44.2954 59.5219 41.2544 57.6428L41.7056 56.694Z" fill="#F67372"/>
<path d="M48.222 55.6631L48.9675 56.7652C46.4423 59.4132 44.2954 59.5219 41.2544 57.6428L41.7056 56.694C44.3542 58.5782 46.2937 58.4069 48.222 55.6631Z" fill="#080B09"/>
<path d="M59.4526 52.8416C59.9431 52.7934 60.4335 52.7575 60.9268 52.7334C62.6701 52.6569 64.1219 53.077 65.414 54.2654C66.1763 56.2022 64.7469 56.7369 63.1998 57.552C62.3114 57.7583 61.3948 57.8272 60.484 57.7563C59.0966 57.6372 57.8662 56.9484 56.9722 55.8934C56.6779 54.8465 56.6694 55.2859 57.0226 54.2343C57.7457 53.3656 58.3847 53.2303 59.4526 52.8416Z" fill="#F6935B"/>
<path d="M26.6241 52.7942C28.743 52.5533 31.4421 52.597 32.793 54.5304C33.0845 56.4438 31.7391 57.0095 30.1892 57.705C28.2581 57.8513 25.4274 57.8955 24.2278 55.6423C23.415 54.123 25.4414 53.2681 26.6241 52.7942Z" fill="#F6935B"/>
<path d="M21.0159 64.118C22.7059 63.5287 24.5529 64.4192 25.1415 66.1073C25.7329 67.7953 24.8444 69.6425 23.1572 70.234C21.4671 70.8261 19.6173 69.9358 19.0259 68.2461C18.4346 66.5565 19.3258 64.7079 21.0159 64.118Z" fill="#CC9535"/>
<path d="M66.65 35.2186C67.8131 35.4742 68.6203 36.5351 68.553 37.7237C68.4886 38.9124 67.5693 39.8777 66.3865 40.0036C65.201 40.1291 64.1023 39.3776 63.7884 38.2292C63.5642 37.4096 63.7856 36.5328 64.3686 35.9169C64.9543 35.3013 65.8204 35.0365 66.65 35.2186Z" fill="#CC9535"/>
<path d="M63.7884 38.2292C63.5642 37.4096 63.7856 36.5328 64.3686 35.9169C64.9543 35.3013 65.8204 35.0365 66.65 35.2186C65.0412 36.6858 65.03 36.2627 63.7884 38.2292Z" fill="#C2862B"/>
<path d="M31.1842 45.4742C33.8412 45.2904 38.0565 46.8422 36.8569 49.9856L36.4113 50.1571C35.5985 49.674 35.2229 48.2343 34.4073 47.049C34.2308 47.0081 34.0486 46.9697 33.8692 46.9338C29.7099 46.1108 31.4673 48.1211 28.771 49.9268L28.2974 49.7388L28.0844 48.9867C28.9588 46.6601 29.0177 46.6771 31.1842 45.4742Z" fill="#080B09"/>
<path d="M55.6268 45.53C58.3202 45.0528 62.4347 47.4735 61.5462 49.759L61.1791 49.7721C59.7973 49.1411 59.4245 48.164 58.5641 46.8475C54.2283 46.2546 54.6571 49.3241 52.8129 49.4911C52.6167 46.9162 53.6453 46.6262 55.6268 45.53Z" fill="#080B09"/>
<path d="M20.6627 38.1768C22.9329 39.0133 23.2721 41.2519 21.0103 42.7113C20.1498 42.4921 19.8359 42.4599 19.1352 41.8687C18.3309 40.0464 19.2361 39.2887 20.6627 38.1768Z" fill="#CC9535"/>
<path d="M63.9257 65.2417C65.4336 65.2784 66.0194 65.1593 66.8798 66.4808C67.034 67.512 66.835 67.807 66.4202 68.7323L64.8114 68.9542C63.7996 68.5003 64.1332 68.7931 63.5502 67.8477C63.4269 66.6203 63.5278 66.4124 63.9257 65.2417Z" fill="#CC9535"/>
<path d="M4.6731 42.6003C8.74828 43.0164 18.9699 56.2829 12.1788 57.2937C8.30265 54.6305 -4.5535 47.0106 4.6731 42.6003Z" fill="#EAB448"/>
<path d="M73.2841 49.6242C76.2606 47.7848 80.3077 43.2658 83.6037 42.9349C85.7394 42.7205 86.8661 45.6123 86.6251 47.6935C85.106 50.3003 80.5095 54.874 77.746 55.8828L77.2612 55.7931C77.0425 54.9962 77.1798 54.7235 77.3732 53.928C77.0061 52.9268 74.5397 51.1766 73.2841 49.6242Z" fill="#EAB448"/>
<path d="M77.3733 53.928C79.6407 54.0065 82.6396 49.5816 84.4754 48.2315C85.5993 47.4057 85.2321 47.5539 86.6251 47.6935C85.106 50.3003 80.5096 54.874 77.7461 55.8828L77.2612 55.7931C77.0426 54.9962 77.1799 54.7235 77.3733 53.928Z" fill="#CC9535"/>
<path d="M60.3298 77.4251L60.8511 77.6667C61.165 81.528 56.6806 86.5929 51.9692 84.277C50.24 82.3765 50.2848 81.0122 49.8336 78.4504L60.3298 77.4251Z" fill="#EAB448"/>
<path d="M49.8336 78.4504L60.3298 77.4251C59.5787 78.0156 58.7491 78.7744 57.9167 79.1804C56.1509 80.0398 53.4799 79.2866 52.5606 81.3961C52.2748 82.052 52.2019 83.4867 51.9692 84.277C50.24 82.3765 50.2848 81.0122 49.8336 78.4504Z" fill="#C2862B"/>
<path d="M40.8733 83.2623C36.4253 87.6793 31.187 82.2162 31.5514 78.4577L32.1119 78.2484C34.6708 78.3549 39.626 77.9424 41.4086 78.9809C42.3503 80.4391 41.672 81.82 40.8733 83.2623Z" fill="#EAB448"/>
<path d="M32.1119 78.2484C34.6708 78.3549 39.626 77.9424 41.4086 78.9809C42.3503 80.4391 41.672 81.82 40.8732 83.2623C40.0997 82.2961 39.9007 81.5121 39.4859 80.3416L34.8445 80.0252C33.8916 79.2415 33.1881 78.864 32.1119 78.2484Z" fill="#CC9535"/>
<path d="M69.3378 14.0411C70.4757 14.0299 71.594 14.2033 71.622 15.4763C70.728 16.8004 69.6966 17.177 68.2756 18.0106C67.8412 18.9118 67.4768 20.129 67.1545 21.1011C66.224 21.4601 65.8288 21.5621 65.1393 20.8469C64.6713 18.0316 67.1405 15.4312 69.3378 14.0411Z" fill="#74BCCA"/>
<path d="M82.0089 11.6441C89.1223 12.7246 85.8347 17.0114 82.8329 20.6088C81.3335 20.8063 79.8873 20.5213 79.0745 19.1858C79.0381 17.1439 80.1339 16.4423 81.5605 14.963C81.7763 13.936 81.8884 12.7019 82.0089 11.6441Z" fill="#080B09"/>
<path d="M82.9114 12.8152C83.5168 12.9455 84.1895 13.1517 84.7921 13.3201C86.5326 15.3531 83.7634 18.2513 82.3509 19.871C81.4344 19.809 81.0728 19.8508 80.3329 19.2699C79.8929 17.7489 82.0117 15.5599 82.9114 12.8152Z" fill="#F67372"/>
<path d="M13.7063 13.9632C14.6761 14.4645 16.68 16.2965 17.5965 17.0851C16.4194 19.4153 15.0348 21.4329 12.5824 22.5061C11.2399 22.5403 9.66476 22.1427 8.9809 20.9249C9.15467 18.4895 12.2181 18.3914 13.7063 13.9632Z" fill="#080B09"/>
<path d="M14.1071 15.3298C15.1245 15.8678 15.615 16.5513 16.369 17.4191C14.9508 19.8797 14.6256 20.2815 12.1704 21.6854C11.3044 21.608 11.2007 21.5856 10.5196 21.0532C10.0628 19.3414 12.6413 18.0459 14.1071 15.3298Z" fill="#F67372"/>
<path d="M70.9326 0.877213C71.8547 0.91888 73.6876 3.20384 74.3323 3.93971C72.418 5.94764 72.0116 6.48818 69.2986 7.2994C67.4011 7.10241 66.5491 6.53021 66.238 4.54018C67.0424 2.15897 68.6455 3.50249 70.7532 1.08634L70.9326 0.877213Z" fill="#080B09"/>
<path d="M71.1063 2.03369C71.6865 2.28956 72.0789 2.6656 72.5722 3.06822C73.256 5.01313 70.6916 5.86695 69.2005 6.65043C68.1943 6.1508 67.5553 5.937 67.4432 4.79221C67.8804 4.06553 70.159 2.74429 71.1063 2.03369Z" fill="#FCD277"/>
<path d="M83.8111 31.3682C87.0595 31.9104 90.7731 35.7185 86.8941 38.4419C84.865 36.4205 83.8363 36.1016 81.4036 34.6506C82.2836 33.1991 82.6985 32.6527 83.8111 31.3682Z" fill="#0E1816"/>
<path d="M83.7579 32.4022C85.2153 32.818 86.7624 33.3535 87.5107 34.7291C87.7658 35.607 87.3482 36.2366 86.9558 37.0627C85.7114 36.3395 83.9344 35.4966 83.1833 34.3429C83.0207 33.2308 83.0656 33.5662 83.7579 32.4022Z" fill="#74BCCA"/>
<path d="M26.1393 12.8387C27.6275 12.9045 28.6281 13.2876 30.0351 13.7309C29.4045 16.4139 29.0541 17.6046 27.1959 19.5963C25.887 19.4173 24.2558 18.5242 23.0198 17.935C24.5501 16.0561 25.1779 14.986 26.1393 12.8387Z" fill="#0E1816"/>
<path d="M26.8483 13.3551C30.3265 14.2838 28.6926 16.9363 26.7923 18.5654C25.8338 18.3284 25.3209 18.2903 24.8668 17.4163C24.9313 16.5176 26.2962 14.4978 26.8483 13.3551Z" fill="#51C9BE"/>
<path d="M37.5127 0.115087C41.9523 -0.472131 41.857 1.19913 41.6103 4.86944C40.223 4.87807 38.6787 4.79358 37.2801 4.74833C37.1568 3.309 37.0811 1.4845 37.5127 0.115087Z" fill="#080B09"/>
<path d="M38.3171 0.516541C39.6344 0.565018 39.7493 0.679904 40.5313 1.47838C40.8928 2.55334 40.8032 2.91582 40.7051 4.03848C39.371 3.95447 38.8665 4.00729 38.0088 3.07095C37.737 2.20259 38.0677 1.39566 38.3171 0.516541Z" fill="#FCD277"/>
<path d="M55.952 5.05084C56.8685 5.64893 58.2054 7.44539 58.9341 8.36057C58.1437 9.0457 57.0198 9.79275 56.1425 10.4112C54.6459 9.58791 53.2613 8.95967 53.4323 7.1167C53.9256 6.17182 55.0215 5.63044 55.952 5.05084Z" fill="#241A19"/>
<path d="M54.999 6.37134C55.9828 6.454 56.5489 6.5532 57.1599 7.37114C57.2917 8.66322 57.2552 8.28521 56.6947 9.57391C55.7193 9.29818 55.0299 8.95968 54.4777 8.10419C54.3796 7.00182 54.2927 7.45353 54.999 6.37134Z" fill="#F67372"/>
<path d="M14.18 4.25018C17.6554 5.28824 18.9054 6.50723 15.8056 9.31106C12.8375 8.98349 11.5342 6.57084 14.18 4.25018Z" fill="#080B09"/>
<path d="M13.4793 5.27874C14.6396 5.24733 15.3039 5.40033 16.2148 6.10793C16.6997 7.1677 16.6492 6.68909 16.3129 7.93269C14.1576 8.44996 13.3616 7.24336 13.4793 5.27874Z" fill="#74BCCA"/>
<path d="M5.2533 31.4654C8.2242 31.6142 9.73207 33.8646 7.43103 35.9819C6.99941 36.0102 6.53973 36.0438 6.10811 36.0385C3.42029 36.0041 3.35304 32.8107 5.2533 31.4654Z" fill="#0E1816"/>
<path d="M79.2791 23.5482C80.0975 23.0948 81.1289 23.3927 81.5773 24.2129C82.0286 25.0328 81.7259 26.0623 80.9047 26.5084C80.0863 26.952 79.0633 26.6516 78.6177 25.8367C78.1692 25.0216 78.4663 23.9988 79.2791 23.5482Z" fill="#FCD277"/>
</svg>
