<svg width="88" height="87" viewBox="0 0 88 87" fill="none" xmlns="http://www.w3.org/2000/svg">
<path d="M11.2018 42.3173C11.1597 39.7696 11.0224 37.1129 11.297 34.5769C11.6082 31.7258 12.4237 30.0434 14.6827 28.2531C18.2758 25.4086 43.6014 13.6054 48.7836 12.1287C50.6615 11.5937 52.6738 11.5965 54.5965 11.8423C61.5949 12.7359 68.7839 18.3267 72.9404 23.7909L73.4028 24.9261C76.441 29.3302 76.0514 36.3244 75.8524 41.6667C73.2599 42.8884 73.2515 43.5777 71.9622 46.179C73.0133 45.4291 74.0923 44.6235 74.9948 43.8095C78.26 40.8658 82.5622 33.36 87.0746 39.4076C90.7826 44.3727 78.9719 53.7123 75.8693 56.0456C75.8132 70.6882 77.1837 73.422 61.4632 75.4572L59.9946 79.5688C61.1577 80.9508 67.1247 80.7858 68.4728 82.9176C66.1774 87.5275 24.6997 87.4619 22.4015 83.1292C22.934 80.4394 30.0361 81.2428 31.5776 79.5781L30.2884 75.7587C25.1874 75.1417 17.3285 76.0224 13.3458 72.1905C10.1563 69.1246 11.1289 60.1922 11.2326 55.7032C7.7544 52.655 2.06483 48.1733 0.419622 43.8605C-0.398777 41.7165 0.0805045 40.4312 0.994196 38.4767C6.23251 35.3436 7.78243 38.4265 11.2018 42.3173Z" fill="#080B09"/>
<path d="M48.8313 78.1263C49.3329 82.0299 50.7287 82.9731 54.4423 84.0321C56.749 83.1959 59.1201 82.0823 59.9946 79.5688C61.1577 80.9508 67.1247 80.7858 68.4728 82.9177C66.1774 87.5275 24.6997 87.4619 22.4015 83.1292C22.934 80.4394 30.0361 81.2428 31.5776 79.5781C32.6175 81.6769 33.3294 82.3676 35.4706 83.3954C37.8754 84.5505 41.7684 82.6428 42.3794 80.1362C42.8867 80.3279 47.6485 80.0194 48.5118 79.9832C48.921 79.3088 48.7976 78.9888 48.8313 78.1263Z" fill="#E0E3E5"/>
<path d="M42.8418 76.5184C44.4674 76.5436 46.6536 76.0392 48.0914 76.6176C48.6435 76.8398 48.6547 77.4658 48.8313 78.1262C48.7976 78.9887 48.921 79.3088 48.5118 79.9832C47.6485 80.0194 42.8867 80.3279 42.3794 80.1362C42.556 78.933 42.7101 77.7269 42.8418 76.5184Z" fill="white"/>
<path d="M12.5443 46.223C11.4484 44.6608 12.3397 35.4047 12.7713 33.2087C13.9204 27.3942 25.1594 23.9484 30.3444 21.4329C34.868 19.2386 44.4366 14.3029 49.1592 13.2198C51.6844 12.6647 54.3078 12.7398 56.7966 13.4387C62.6572 15.0628 69.7789 20.3095 72.7862 25.7112C75.0593 29.5294 75.0648 36.1027 74.9667 40.4861C73.5906 41.6075 72.789 42.3322 71.5334 43.5777C70.7963 45.6281 70.9533 46.2616 71.4493 48.414C72.775 50.1348 73.1702 50.4517 74.8182 51.8116C75.006 56.1286 75.8889 67.9248 72.9488 70.9965C69.5098 74.5866 48.0073 75.5155 42.5728 75.5175C37.9006 75.5191 17.1828 74.5555 14.2707 71.6928C13.4916 70.9253 13.0964 70.0342 12.6396 69.061C11.8576 66.3197 12.0762 59.9308 12.1883 57.0449C16.8156 53.515 17.2108 50.1314 12.5443 46.223Z" fill="#EAB448"/>
<path d="M12.5443 46.223C11.4484 44.6608 12.3397 35.4047 12.7713 33.2087C13.9204 27.3942 25.1594 23.9484 30.3444 21.4329C34.868 19.2386 44.4366 14.3029 49.1592 13.2198C51.6844 12.6647 54.3078 12.7398 56.7966 13.4387C62.6572 15.0628 69.7789 20.3095 72.7862 25.7112C71.8754 26.2703 71.141 26.6427 70.1825 27.1179L68.5569 27.1681C61.707 27.1028 54.4087 28.3425 47.5504 28.8146C43.1641 29.1167 38.6489 29.1971 34.2991 29.6766L34.1533 29.6824C29.4475 29.8416 28.4217 24.8692 23.0237 30.4152L17.791 30.8941C10.1311 32.3986 14.764 43.7386 12.5443 46.223Z" fill="#FCD277"/>
<path d="M49.6693 19.4571C49.6329 18.0815 48.0661 16.5897 50.1401 15.5117C51.2332 15.552 51.3678 15.6641 52.2618 16.2537C53.5118 16.0536 53.4502 15.8771 54.504 16.2506C54.9525 17.1571 54.4844 18.9496 54.4143 20.1613C53.1138 21.6389 52.5505 22.4571 50.6222 22.855C49.6693 22.5989 49.9944 22.8242 49.417 21.9914C49.2152 20.9353 49.403 20.4967 49.6693 19.4571Z" fill="#080B09"/>
<path d="M49.6693 19.4571C49.6329 18.0815 48.0661 16.5897 50.1401 15.5117C51.2332 15.552 51.3678 15.6641 52.2618 16.2537C51.0623 17.2137 49.9776 17.905 49.6693 19.4571Z" fill="#CC9535"/>
<path d="M52.8252 16.8937L53.5287 17.2756C54.49 19.6255 52.7271 20.7346 51.0343 22.12L50.7596 22.1945L50.3391 21.8205C50.2326 19.1839 50.7455 18.5038 52.8252 16.8937Z" fill="#F67372"/>
<path d="M34.5457 22.744C36.4124 22.5916 39.9914 21.9883 41.0957 23.7506C40.7706 24.726 40.9584 24.3696 40.0671 25.162C38.122 25.6347 35.3277 26.0859 33.8787 24.4399C33.8787 23.3784 33.8422 23.7234 34.5457 22.744Z" fill="#EAB448"/>
<path d="M61.2782 21.7849C62.4862 21.5341 63.8427 21.8656 64.364 23.0584C63.966 23.829 63.938 23.6561 63.0243 24.0748C61.7799 24.0865 60.5972 24.2788 59.79 23.217C60.1683 22.2408 60.1992 22.4661 61.2782 21.7849Z" fill="#EAB448"/>
<path d="M71.4494 48.414C72.775 50.1348 73.1702 50.4517 74.8182 51.8116C75.006 56.1286 75.8889 67.9248 72.9488 70.9965C69.5098 74.5866 48.0073 75.5155 42.5728 75.5175C37.9006 75.5191 17.1828 74.5555 14.2708 71.6928C13.4916 70.9253 13.0964 70.0342 12.6396 69.061C15.6609 68.9806 20.3611 70.6958 24.2009 70.8219C28.2396 70.9544 32.9818 71.8063 37.2055 71.8705C47.8699 72.0327 56.0091 70.8401 66.3372 68.727L66.6931 68.4056C72.4527 63.1905 71.0345 56.3197 71.4494 48.414Z" fill="#CC9535"/>
<path d="M34.2991 29.6766C38.6489 29.1971 43.1641 29.1167 47.5504 28.8146C54.4087 28.3425 61.707 27.1028 68.5569 27.1681L68.3495 27.8249C65.771 28.737 57.4777 28.5753 54.1901 28.9909C46.9955 29.8999 39.2459 29.9206 32.0989 31.1168C29.5793 34.0846 27.2138 35.3815 24.0355 32.1976C23.7944 31.9527 23.5562 31.7014 23.3292 31.4436C21.9782 31.415 18.7663 31.4923 17.791 30.8941L23.0237 30.4152C28.4217 24.8692 29.4475 29.8416 34.1533 29.6824L34.2991 29.6766Z" fill="#C2862B"/>
<path d="M23.0237 30.4152C28.4217 24.8692 29.4475 29.8416 34.1533 29.6824L34.2991 29.6766C33.8815 29.7402 32.4549 29.9733 32.1606 30.1703C30.5294 31.2637 28.021 34.2695 25.8292 32.774C24.7726 32.0544 24.184 30.9426 23.0237 30.4152Z" fill="#EAB448"/>
<path d="M72.7862 25.7112C75.0593 29.5294 75.0648 36.1027 74.9667 40.4861C73.5906 41.6075 72.789 42.3322 71.5334 43.5777C71.0177 42.2666 71.4718 41.2186 71.4465 39.7214C71.3793 35.9413 71.6147 30.6536 70.1825 27.1179C71.141 26.6427 71.8754 26.2702 72.7862 25.7112Z" fill="#CC9535"/>
<path d="M29.8567 44.6367C31.5692 43.5979 33.7553 43.7649 35.294 45.0522C37.1859 46.6374 37.5222 49.4183 36.0648 51.4095C34.6046 53.4007 31.8523 53.9191 29.7699 52.5948C27.6874 51.2702 26.9895 48.5574 28.1751 46.3928C28.5703 45.6698 29.1504 45.064 29.8567 44.6367Z" fill="#353A3B"/>
<path d="M30.4509 45.6522C31.0927 45.5443 31.7261 45.8699 32.0148 46.4527C32.3007 47.0356 32.169 47.7375 31.6925 48.1791C31.2161 48.6207 30.507 48.697 29.9492 48.3672C29.3887 48.0371 29.1112 47.3788 29.2682 46.7484C29.4083 46.1801 29.8736 45.7494 30.4509 45.6522Z" fill="white"/>
<path d="M29.8568 44.6367L30.5798 45.1999L30.4509 45.6522C29.8736 45.7494 29.4083 46.1801 29.2682 46.7484C29.0271 47.0594 28.8534 47.3189 28.6348 47.6423L28.1751 46.3928C28.5703 45.6698 29.1505 45.064 29.8568 44.6367Z" fill="#2B2C20"/>
<path d="M57.7916 53.2129C50.5494 54.3108 49.4927 44.4901 55.7008 44.1533C61.1325 43.8582 63.3691 49.982 57.9261 53.1742L57.7916 53.2129Z" fill="#353A3B"/>
<path d="M54.1761 45.8138C54.8347 45.5126 55.6139 45.7606 55.9782 46.3866C56.3426 47.0126 56.1689 47.8121 55.5831 48.2341C55.1487 48.5457 54.5741 48.584 54.1004 48.3327C53.6296 48.0813 53.3409 47.584 53.3577 47.0496C53.3717 46.5152 53.6912 46.0361 54.1761 45.8138Z" fill="white"/>
<path d="M57.7916 53.2129L57.9262 53.1742C59.86 54.1132 64.7872 52.7394 65.1712 56.4113C64.2127 58.8141 57.6823 59.7198 56.1436 56.6066C56.0707 55.37 57.0573 54.2797 57.7916 53.2129Z" fill="#F6935B"/>
<path d="M28.475 53.5842C29.8315 53.4096 32.0345 53.8381 32.2475 55.5006C32.5838 58.1254 29.3859 58.2955 27.5557 58.5146C25.9049 58.2829 24.9071 58.2873 23.8421 56.9538C23.2535 54.134 26.4739 53.7902 28.475 53.5842Z" fill="#F6935B"/>
<path d="M20.8432 61.8315C25.9497 61.4355 26.7121 65.8579 22.8696 68.3801C20.5461 68.3779 20.0948 67.3952 18.587 65.8108C19.1531 63.9168 19.5287 63.2979 20.8432 61.8315Z" fill="#CC9535"/>
<path d="M63.9828 33.7164C64.7312 33.3121 65.6364 33.3398 66.3568 33.7893C67.0771 34.239 67.5031 35.0407 67.4667 35.8895C67.433 36.738 66.9425 37.5024 66.1886 37.8908C65.0367 38.4831 63.6241 38.0384 63.0187 36.8943C62.4161 35.7502 62.8449 34.3329 63.9828 33.7164Z" fill="#CC9535"/>
<path d="M48.2287 52.8153L48.7388 53.0462C48.9238 53.4724 49.1199 53.9042 48.8032 54.3343C46.1575 57.9233 42.9371 56.6313 40.0952 54.9943C39.9915 54.3601 40.0167 54.2304 40.0727 53.5828C41.7263 53.1552 43.649 58.892 48.2287 52.8153Z" fill="#080B09"/>
<path d="M20.6834 36.8366C21.342 36.8105 21.4149 36.9187 22.0007 37.2939C23.0125 38.855 22.6593 39.8105 21.1627 40.6747C19.9435 40.3115 19.2035 40.2516 18.8504 38.9525C19.1307 37.9759 19.893 37.4945 20.6834 36.8366Z" fill="#CC9535"/>
<path d="M65.2273 63.5472C65.9672 64.1617 66.1017 64.2481 66.4072 65.1495C66.0429 67.1228 64.0753 66.9454 62.7749 66.0498C62.3573 65.2731 62.6656 64.7961 63.0327 64.1404C63.9576 63.4906 64.123 63.5077 65.2273 63.5472Z" fill="#CC9535"/>
<path d="M62.7749 66.0498C62.3573 65.2731 62.6656 64.7961 63.0327 64.1404C63.9576 63.4906 64.123 63.5077 65.2273 63.5472C65.1179 63.6447 62.276 66.3682 62.7749 66.0498Z" fill="#C2862B"/>
<path d="M0.982971 42.8481C1.00539 40.9532 1.8126 37.7664 4.29302 38.1811C7.17703 38.6633 9.11932 41.6266 11.0112 43.6035C11.2578 49.3656 17.4098 49.3238 12.704 55.5177C11.6026 54.4461 10.8402 53.7187 9.61821 52.7548C6.82108 50.3926 2.3451 46.2754 0.982971 42.8481Z" fill="#EAB448"/>
<path d="M0.982971 42.8481C3.77449 43.8619 8.79701 49.8941 9.61821 52.7548C6.82108 50.3926 2.3451 46.2754 0.982971 42.8481Z" fill="#CC9535"/>
<path d="M82.4585 37.9577C84.6811 37.8703 86.884 40.061 86.6234 42.0407C86.06 46.3037 79.5885 51.484 76.6428 54.1329C76.228 54.3136 76.4466 54.278 75.9617 54.1267C75.7599 53.0913 75.6058 52.1184 75.4517 51.0752C73.5682 49.6898 73.3384 49.2611 72.3266 47.1104C77.1753 44.239 79.0335 40.2426 82.4585 37.9577Z" fill="#EAB448"/>
<path d="M49.7141 76.4464C52.1889 76.0283 57.8337 75.4589 60.2496 75.6528C59.4228 80.3795 55.8745 84.6152 50.9697 81.4429C50.2999 80.1292 49.2965 77.9066 49.7141 76.4464Z" fill="#EAB448"/>
<path d="M49.7141 76.4464C52.1889 76.0283 57.8337 75.4589 60.2496 75.6528C58.6969 76.0291 58.9323 76.0978 57.6122 76.8067C56.4743 77.4184 54.3611 77.535 53.0298 77.6202C51.7209 78.5001 51.491 79.8882 50.9697 81.4429C50.2999 80.1292 49.2965 77.9066 49.7141 76.4464Z" fill="#C2862B"/>
<path d="M50.9697 81.4429C50.2999 80.1292 49.2965 77.9066 49.7141 76.4464C50.8212 76.5352 52.5 76.5445 53.4053 77.076C53.2652 77.4686 53.3437 77.331 53.0298 77.6202C51.7209 78.5001 51.491 79.8883 50.9697 81.4429Z" fill="#CC9535"/>
<path d="M31.2861 75.856C32.4969 76.0235 33.7133 76.1359 34.9185 76.2875C36.8328 76.5282 40.3586 75.7007 41.5469 77.4829C41.8412 78.9473 40.8939 80.2136 40.1316 81.4409C35.5099 85.1756 32.396 79.8989 31.2861 75.856Z" fill="#EAB448"/>
<path d="M35.6108 2.29171C37.895 2.79526 38.4331 3.19092 40.1372 4.81785C38.8199 8.05657 37.696 10.4398 34.6522 12.3088C34.4448 12.4531 34.1393 12.4711 33.8703 12.5221C32.1746 11.8756 31.6869 10.8663 30.9414 9.26738C31.4319 8.95046 31.9168 8.61897 32.3876 8.27346C34.8064 6.47868 35.21 5.1258 35.6108 2.29171Z" fill="#0E1816"/>
<path d="M36.3002 3.38035C41.6535 4.71949 36.6338 9.69191 34.5793 11.6156C33.8703 11.761 32.9986 11.3281 32.5558 10.7915C32.2671 8.26786 35.5715 7.99773 36.3002 3.38035Z" fill="#74BCCA"/>
<path d="M74.5604 18.334L74.0278 17.8397C74.1736 13.3585 82.6659 14.156 85.4153 14.2664L84.1065 18.7426C82.5874 18.5865 81.2337 18.4427 79.6978 18.4027C78.8149 18.1555 77.3266 18.1774 76.1635 17.9638L75.2947 18.2592L74.5604 18.334Z" fill="#51C9BE"/>
<path d="M74.5604 18.334L74.0278 17.8397C74.1736 13.3585 82.6659 14.156 85.4153 14.2664L84.1065 18.7426C82.5874 18.5865 81.2337 18.4427 79.6978 18.4027C78.8149 18.1555 77.3266 18.1774 76.1635 17.9638L76.3877 17.9184C80.7376 17.0789 82.4753 19.7396 84.8436 15.1906C80.7909 15.234 76.5895 14.117 74.5604 18.334Z" fill="#0E1816"/>
<path d="M64.7368 1.16497C65.8102 1.82936 67.8927 2.88465 68.2879 3.98226C68.3887 6.18418 65.5888 8.63466 63.5484 9.22591C61.6173 8.83165 60.8606 8.04145 59.4004 6.82083C62.7749 5.09275 63.2401 4.67943 64.7368 1.16497Z" fill="#080B09"/>
<path d="M64.9862 2.24492C65.4991 2.34748 66.4185 2.88969 66.7268 3.3187C68.1926 5.36511 65.0535 7.60515 63.7362 8.55984C63.1505 8.39087 62.7412 8.12018 62.2171 7.82119C61.5921 6.52912 64.2407 4.41182 64.9862 2.24492Z" fill="#FCD277"/>
<path d="M12.2219 9.53331C17.3313 11.981 13.7495 15.1847 14.3492 17.1187C15.6245 17.7184 17.7658 16.6676 19.0298 16.1635L20.4144 19.1794C20.3079 19.6799 20.4171 19.4403 19.9631 19.8489C17.3846 19.8447 13.5476 18.7622 12.1855 16.3851C10.8542 14.0652 11.5801 11.9056 12.2219 9.53331Z" fill="#FCD277"/>
<path d="M3.37092 5.09078C5.79248 4.83775 8.23647 4.50989 9.61261 7.03995C9.68268 7.96971 9.73875 7.59282 9.23986 8.52145C8.14119 9.23712 8.13557 8.99445 6.59687 9.01939C5.45896 8.99305 3.95951 9.57254 2.86364 9.95503C2.46005 8.76972 1.80138 7.31316 2.03401 6.13009C2.59175 5.2987 2.31709 5.58424 3.37092 5.09078Z" fill="#080B09"/>
<path d="M5.12263 5.59628C6.47916 5.55425 7.31438 5.62542 8.32337 6.6723C8.39344 7.40983 8.38782 7.15848 7.959 7.91786C7.32558 8.14231 6.99206 8.15688 6.31941 8.24011L6.12323 8.28915C4.8648 8.59374 4.31266 8.78008 3.20838 8.11626C2.66465 7.34342 2.74312 7.69285 2.88606 6.81605C3.72407 5.87369 3.77452 6.07741 5.12263 5.59628Z" fill="#F67372"/>
<path d="M5.99428 20.671C6.47354 20.7439 8.03468 20.9591 8.3598 21.1709C11 22.8886 9.55095 26.5415 7.15181 27.3541C5.23474 27.1117 4.43037 26.9307 2.64783 26.1797L4.96289 24.2339L5.99428 20.671Z" fill="#080B09"/>
<path d="M6.75661 22.0104C7.91694 22.0617 8.18601 22.0592 8.82783 22.95C9.02402 24.3376 8.05149 25.5832 7.26953 26.683C6.14844 26.6701 5.69159 26.7365 5.06097 25.8539C5.06658 24.9255 6.25212 23.0573 6.75661 22.0104Z" fill="#51C9BE"/>
<path d="M20.9917 5.46543C24.5568 7.13971 24.9408 8.89722 22.2305 11.5892C21.3869 11.3505 20.916 10.8652 20.2686 10.3277C17.9367 8.39507 19.6268 6.87071 20.9917 5.46543Z" fill="#080B09"/>
<path d="M20.263 6.79224C22.8051 6.8071 23.4721 8.2984 22.5444 10.5048C20.5377 10.275 19.6464 8.71228 20.263 6.79224Z" fill="#F67372"/>
<path d="M78.473 2.64674C80.093 2.69298 81.6513 4.1742 82.9518 5.18129C82.551 6.12758 82.0605 7.00269 81.5756 7.90722C80.0986 8.36313 77.9321 7.04164 77.691 5.46991C77.5004 4.23164 77.9152 3.65019 78.473 2.64674Z" fill="#080B09"/>
<path d="M78.7785 3.74827C80.8806 4.14281 81.9372 4.99523 81.3963 7.12346C80.2191 6.99708 79.241 6.77347 78.5291 5.7703C78.3132 4.55557 78.3385 4.97225 78.7785 3.74827Z" fill="#F67372"/>
<path d="M75.2947 18.2592L76.1635 17.9639C77.3266 18.1774 78.8149 18.1555 79.6978 18.4027C78.3356 18.4456 78.2488 18.2191 77.3407 18.8894C77.094 21.524 79.5604 22.1321 78.1338 24.1084C76.5839 25.0583 74.9219 24.2807 73.4028 24.9261L72.9404 23.7909C73.2319 23.2016 73.5514 21.8028 73.7167 21.1109L74.0334 21.0151C74.6809 22.12 74.9051 22.8923 76.1888 23.1585C77.0352 22.8626 76.7773 23.0811 77.2062 22.3747C77.3183 20.9019 76.1383 19.5244 75.2947 18.2592Z" fill="#51C9BE"/>
<path d="M71.2363 9.04573C72.6713 9.05442 72.8423 9.00482 73.7055 10.1473C73.8989 11.304 73.798 11.5021 73.428 12.5938C72.1023 12.6717 71.6875 12.7751 70.9028 11.645C70.7598 10.5648 70.9504 10.0935 71.2363 9.04573Z" fill="#74BCCA"/>
<path d="M52.2843 2.93704C53.1699 2.74706 54.0444 3.30356 54.2462 4.1868C54.448 5.06976 53.9042 5.95159 53.0242 6.16624C52.444 6.30774 51.833 6.12589 51.4238 5.69016C51.0146 5.2547 50.8717 4.63262 51.051 4.06238C51.2276 3.49243 51.6985 3.0623 52.2843 2.93704Z" fill="#FCD277"/>
<path d="M15.4199 0.294628C16.1346 -0.206396 17.1183 -0.053683 17.6481 0.640689C18.1806 1.33506 18.0685 2.32422 17.3958 2.88297C16.9362 3.26603 16.3027 3.36578 15.7478 3.14329C15.1929 2.92052 14.8033 2.41137 14.7332 1.81676C14.6659 1.22214 14.9294 0.637611 15.4199 0.294628Z" fill="#FCD277"/>
</svg>
