<svg width="265" height="199" viewBox="0 0 265 199" fill="none" xmlns="http://www.w3.org/2000/svg">
<path d="M40.095 89.9062C40.0872 84.2734 40.1197 78.6405 40.1923 73.0079C40.4028 62.527 40.3607 53.6582 48.1568 45.8598C50.1019 43.9104 52.3181 42.2515 54.7368 40.9351C56.9431 39.7209 59.2554 38.704 61.5337 37.6344C73.8792 31.8396 86.3256 26.2588 98.7414 20.6167C107.996 16.4031 117.277 12.2472 126.584 8.14909C135.71 4.11736 143.317 -0.21869 153.696 0.0085647C172.176 0.413195 190.317 12.5734 203.484 24.735C213.868 34.5462 217.741 46.3939 217.935 60.2374C218.027 66.6952 218.86 73.1026 218.274 79.6103C214.958 81.3401 212.94 81.9008 210.891 84.9801L211.02 85.0499C218.745 89.1651 233.549 91.1078 242.33 93.0004C250.172 94.6906 261.083 93.078 264.132 103.024C266.604 111.097 261.021 119.943 252.47 120.009C243.737 120.18 235.617 118.753 227.066 117.302C224.162 116.816 221.365 115.85 218.392 115.632C218.246 124.8 218.949 144.696 216.099 152.82C215.07 155.758 213.358 158.408 211.102 160.554C202.906 168.485 189.391 167.656 178.92 169.338C177.847 173.849 177.108 177 174.99 181.168C176.883 182.757 203.845 183.233 205.471 189.074C205.292 189.857 205.02 190.206 204.336 190.651C194.421 197.101 149.767 198.195 136.606 198.209C128.54 198.218 120.501 197.799 112.445 197.471C107.651 197.276 102.822 197.269 98.0374 196.927C90.0964 196.358 81.61 195.423 73.8702 193.615C71.5232 193.067 65.3895 191.794 64.1767 189.545C64.0377 189.288 64.0167 189.191 64.1257 188.923C64.7681 187.342 67.6622 186.316 69.1457 185.826C75.5679 183.705 82.8367 182.737 89.5571 182.015C91.1583 181.843 95.812 182.032 96.9362 181.41C95.1906 178.215 94.1506 174.264 93.0594 170.752C85.8418 170.843 80.7302 169.877 73.7248 169.194C64.6868 168.395 54.7458 168.935 47.4267 162.492C38.2043 154.374 40.6334 140.194 40.0721 129.248C39.9336 126.547 39.5463 119.843 41.2579 117.927L40.4359 117.366C31.5613 118.545 22.31 120.732 13.1871 120.693C6.28987 120.664 1.14096 115.406 0.10227 108.763C-0.650825 103.946 2.85007 98.0944 7.48327 96.3176C18.1149 93.8102 29.5172 92.8796 40.095 89.9062Z" fill="#353A3B"/>
<path d="M127.368 178.985C127.423 179.035 127.99 179.549 127.99 179.549C132.814 180.042 137.78 179.867 142.637 179.986C143.439 180.005 144.126 179.979 144.561 179.253C146.438 184.368 147.833 188.24 153.245 190.739C156.834 192.396 160.855 192.621 164.529 191.168C169.939 189.028 172.125 185.85 174.99 181.168C176.883 182.757 203.845 183.233 205.471 189.074C205.292 189.857 205.02 190.206 204.336 190.651C194.421 197.101 149.767 198.195 136.606 198.209C128.54 198.218 120.501 197.799 112.445 197.471C107.651 197.276 102.822 197.269 98.0374 196.927C90.0964 196.358 81.61 195.423 73.8702 193.615C71.5232 193.067 65.3894 191.794 64.1767 189.545C64.0377 189.288 64.0167 189.191 64.1257 188.923C64.7681 187.342 67.6622 186.316 69.1457 185.826C75.5678 183.705 82.8367 182.737 89.5571 182.015C91.1583 181.843 95.812 182.032 96.9362 181.41C99.5032 185.729 102.814 189.697 107.751 191.311C111.618 192.58 115.835 192.219 119.429 190.309C124.55 187.622 125.768 183.977 127.368 178.985Z" fill="#E0E3E5"/>
<path d="M143.492 172.417C143.583 175.017 143.815 176.716 144.561 179.253C144.126 179.979 143.439 180.005 142.637 179.986C137.78 179.867 132.814 180.042 127.99 179.549C127.99 179.549 127.423 179.035 127.368 178.985C127.802 176.885 128.133 174.738 128.12 172.586L143.492 172.417Z" fill="white"/>
<path d="M40.4359 117.366C42.1038 116.765 44.1136 116.388 45.8796 116.138C44.7058 116.756 42.534 118.038 41.2579 117.927L40.4359 117.366Z" fill="#E0E3E5"/>
<path d="M43.4676 92.0163C42.7383 82.3452 43.4777 67.1142 44.8916 57.5765C46.5772 46.2076 62.9544 40.3634 72.2895 36.1288C80.1271 32.5155 87.9837 28.9433 95.8591 25.4126C106.85 20.3754 117.887 15.4375 128.967 10.5999C141.259 5.29203 149.37 0.411525 162.949 4.34826C178.281 8.79303 199.73 21.4966 207.926 35.4672C216.032 46.5226 214.501 59.6929 215.098 72.6257C215.177 74.3112 215.227 76.0606 215.205 77.7472C211.315 79.3862 208.226 81.9473 206.614 85.9659C205.109 89.7146 204.868 95.6781 206.528 99.4092C207.853 102.383 210.076 104.482 212.766 106.223C213.232 106.524 214.227 106.976 214.566 107.356C215.827 108.762 214.782 142.071 214.476 145.989C214.347 147.645 214.185 149.384 213.613 150.952C211.942 155.525 208.212 159.822 203.766 161.83C196.998 164.888 183.77 165.791 176.08 166.487C169.914 167.045 163.763 168.126 157.586 168.492C142.795 169.268 127.976 169.38 113.174 168.826C103.62 168.518 94.5609 168.251 85.0456 167.096C76.3137 166.036 67.3858 166.218 58.7055 164.469C52.6611 163.403 45.0497 158.186 44.6217 151.587C43.585 146.659 43.1315 135.939 43.4163 130.728C43.3751 128.028 42.9628 123.276 43.7613 120.681C43.9281 120.139 44.7927 119.969 45.4099 119.74C46.5083 119.589 49.0885 117.346 49.7409 116.436C55.0885 108.974 53.429 98.9135 46.2639 93.3837L43.4676 92.0163Z" fill="#EAB448"/>
<path d="M43.4676 92.0163C42.7383 82.3452 43.4777 67.1142 44.8916 57.5765C46.5772 46.2076 62.9544 40.3634 72.2895 36.1288C80.1271 32.5155 87.9837 28.9433 95.8591 25.4126C106.85 20.3754 117.887 15.4375 128.967 10.5999C141.259 5.29203 149.37 0.411525 162.949 4.34826C178.281 8.79303 199.73 21.4966 207.926 35.4672C207.234 38.8831 205.69 39.891 202.522 41.0987C201.665 41.3901 198.091 42.6845 197.393 42.6189C196.944 41.6855 196.951 41.3038 196.191 40.7877C190.612 40.7075 181.971 42.2496 176.004 42.5791C149.897 44.1912 123.818 46.2253 97.777 48.6805C97.2506 48.6718 95.9317 48.7688 95.7865 48.398C92.838 40.8712 79.9239 39.9941 75.4092 49.3631C72.0002 49.5968 57.8686 49.1129 57.2663 51.9896C55.0956 52.5189 53.9739 50.6036 51.4408 54.5521C46.0537 62.9496 47.3247 75.0356 46.5985 84.6929C46.4267 87.015 46.8802 91.6279 46.2639 93.3837L43.4676 92.0163Z" fill="#FCD277"/>
<path d="M144.135 17.6243C138.988 10.7506 164.196 6.7668 166.119 16.0963C161.967 22.154 149.76 21.4736 144.135 17.6243Z" fill="#EAB448"/>
<path d="M144.135 17.6243C138.988 10.7506 164.196 6.7668 166.119 16.0963C164.521 16.1207 163.406 14.4637 162.313 14.2488C156.951 13.1947 147.577 12.3728 144.135 17.6243Z" fill="#CC9535"/>
<path d="M103.461 33.4864C105.895 27.8538 119.718 27.3037 122.1 32.6872C123.248 39.4356 103.071 39.7596 103.461 33.4864Z" fill="#EAB448"/>
<path d="M103.461 33.4864C105.895 27.8538 119.718 27.3037 122.1 32.6872L121.779 32.968L121.514 32.815C117.739 30.6666 112.633 31.0043 108.465 31.8973C106.33 32.3549 105.291 34.1354 103.819 34.2427C103.715 34.037 103.524 33.6904 103.461 33.4864Z" fill="#CC9535"/>
<path d="M174.166 30.1566C175.504 26.4124 182.763 26.666 185.353 28.89C185.991 29.6973 185.881 29.3364 185.881 30.2474C184.364 33.3183 175.777 34.6781 174.073 30.5528L174.166 30.1566Z" fill="#EAB448"/>
<path d="M174.166 30.1566C175.504 26.4124 182.763 26.666 185.353 28.89C181.98 29.1456 177.857 27.503 175.06 30.2507C174.873 30.4337 174.648 30.4424 174.408 30.4435L174.166 30.1566Z" fill="#C2862B"/>
<path d="M207.926 35.4672C216.032 46.5225 214.501 59.6929 215.098 72.6257C215.177 74.3112 215.227 76.0606 215.205 77.7472C211.315 79.3862 208.226 81.9473 206.614 85.9659C205.109 89.7146 204.868 95.6781 206.528 99.4092C207.853 102.383 210.076 104.482 212.766 106.223C213.232 106.524 214.227 106.976 214.566 107.356C215.827 108.762 214.782 142.071 214.476 145.989C214.347 147.645 214.185 149.384 213.613 150.952C211.942 155.525 208.212 159.822 203.766 161.83C196.998 164.888 183.77 165.791 176.08 166.487C169.914 167.045 163.763 168.126 157.586 168.492C142.795 169.268 127.976 169.38 113.174 168.826C103.62 168.518 94.5609 168.251 85.0456 167.096C76.3137 166.036 67.3858 166.218 58.7055 164.469C52.6611 163.403 45.0497 158.186 44.6217 151.587C52.4254 155.596 73.7074 156.598 83.1683 157.905C101.285 160.406 121.548 160.238 139.869 159.518C149.158 159.153 160.491 157.307 169.729 155.946C180.325 154.383 194.694 153.896 200.288 143.229C204.924 133.07 205.743 114.059 205.362 102.688C205.266 99.8413 202.04 95.9642 202.297 91.4163C202.61 85.8905 204.7 83.2366 206.334 78.1669C206.878 69.0597 205.025 49.3211 202.522 41.0987C205.69 39.891 207.234 38.8831 207.926 35.4672Z" fill="#CC9535"/>
<path d="M97.777 48.6805C123.818 46.2252 149.897 44.1912 176.004 42.5791C181.971 42.2496 190.612 40.7075 196.191 40.7877C196.951 41.3038 196.944 41.6855 197.393 42.6189C196.673 43.2992 196.255 43.7358 195.24 43.8644C190.018 44.5255 184.72 44.6446 179.464 45.0525L147.888 47.6269L118.301 50.0404C112.117 50.6044 102.944 51.7026 96.9617 51.7914C94.9961 55.4768 92.6951 58.3372 88.5036 59.6282C85.5918 60.4977 82.4544 60.1828 79.7736 58.752C77.5592 57.5765 75.2789 55.1932 74.5039 52.7831C71.9616 53.1076 60.1136 53.7353 58.083 53.0434C57.6881 52.6105 57.5762 52.4838 57.2663 51.9895C57.8686 49.1129 72.0002 49.5968 75.4092 49.3631C79.9238 39.9941 92.838 40.8712 95.7865 48.398C95.9317 48.7688 97.2506 48.6718 97.777 48.6805Z" fill="#CC9535"/>
<path d="M75.4092 49.3631C79.9238 39.9941 92.838 40.8712 95.7865 48.398C95.9317 48.7687 97.2506 48.6718 97.777 48.6805C96.8294 49.0647 95.5155 49.0151 94.4639 49.0422C93.8969 50.7644 93.6567 51.8833 92.5286 53.3589C88.8323 58.1938 80.4278 58.2706 77.7624 52.4121C77.0429 50.8309 77.0948 50.1051 75.4092 49.3631Z" fill="#EAB448"/>
<path d="M43.4163 130.728C43.3751 128.028 42.9628 123.276 43.7613 120.681C43.9281 120.139 44.7927 119.969 45.4099 119.74C45.6086 121.87 44.7991 129.173 43.4163 130.728Z" fill="#F8CB72"/>
<path d="M163.589 85.9936C170.413 85.4309 176.412 90.4812 177.018 97.3C177.625 104.119 172.612 110.148 165.795 110.798C158.917 111.454 152.82 106.387 152.208 99.5058C151.596 92.6252 156.703 86.5616 163.589 85.9936Z" fill="#353A3B"/>
<path d="M159.407 90.6875C162.786 90.2935 163.644 91.2689 164.569 94.3451C164.113 95.6675 163.775 97.0509 162.519 97.7206C156.424 98.951 154.605 92.8191 159.407 90.6875Z" fill="white"/>
<path d="M97.8944 86.0001C104.689 85.6798 110.477 90.8814 110.881 97.6699C111.285 104.458 106.153 110.309 99.3689 110.796C94.9056 111.116 90.6149 109.012 88.1361 105.287C85.6574 101.562 85.3738 96.7928 87.3937 92.8006C89.4134 88.8084 93.4246 86.2105 97.8944 86.0001Z" fill="#353A3B"/>
<path d="M93.2514 90.6923C96.6584 90.2344 97.4376 91.3345 98.3577 94.3096C97.6001 96.5443 97.9045 97.1787 95.5356 97.8999C89.7883 98.2334 88.48 92.9995 93.2514 90.6923Z" fill="white"/>
<path d="M173.451 112.581C177.33 112.262 191.035 112.57 188.017 120.976C187.28 123.029 182.025 124.321 179.713 124.766C175.472 125.276 170.597 125.015 166.873 122.67C164.946 121.457 163.023 118.756 164.791 116.544C166.876 113.932 170.276 113.071 173.451 112.581Z" fill="#F6935B"/>
<path d="M83.9699 112.563C87.1409 112.358 92.2727 112.326 94.8607 114.015C103.763 119.827 96.0399 123.618 89.9686 124.745C85.8642 125.322 80.5971 125.026 77.0247 122.691C75.0196 121.381 73.269 118.632 75.1239 116.396C77.2638 113.817 80.7947 113.05 83.9699 112.563Z" fill="#F6935B"/>
<path d="M63.168 146.772C60.8241 143.114 61.6181 138.278 65.0083 135.562C68.3984 132.845 73.2923 133.124 76.3526 136.207C78.6419 138.514 79.414 141.925 78.3414 144.992C77.2688 148.06 74.5395 150.247 71.311 150.626C68.0829 151.004 64.9214 149.508 63.168 146.772Z" fill="#CC9535"/>
<path d="M63.168 146.772C60.8241 143.114 61.6181 138.278 65.0083 135.562C68.3984 132.845 73.2923 133.124 76.3526 136.207C74.6855 136.629 74.4891 135.311 72.331 135.502C69.2732 135.772 68.5473 136.059 66.4584 137.996C63.7182 140.536 63.8577 145.388 63.168 146.772Z" fill="#C2862B"/>
<path d="M184.609 69.1569C183.605 68.1053 182.874 66.4666 182.748 65.0145C182.596 63.241 183.154 61.4799 184.3 60.118C186.516 57.5165 190.484 57.3952 192.951 59.6481C199.437 64.1909 192.83 75.8381 184.609 69.1569Z" fill="#CC9535"/>
<path d="M184.609 69.1569C183.605 68.1053 182.874 66.4666 182.748 65.0145C182.596 63.241 183.154 61.4799 184.3 60.118C186.516 57.5165 190.484 57.3952 192.951 59.6481C191.331 59.9558 190.398 60.0373 188.774 60.1472C183.998 63.6283 184.96 64.2604 184.609 69.1569Z" fill="#C2862B"/>
<path d="M142.084 109.397C143.259 109.803 144.07 110.876 143.749 112.056C141.997 118.479 134.347 121.094 128.373 119.834C124.39 118.995 122.147 116.968 120.04 113.965C119.4 112.596 119.142 111.95 119.621 110.463C120.316 109.71 119.972 109.871 120.889 109.781C121.83 110.178 122.257 111.013 122.788 111.834C125.877 116.612 131.974 118.304 136.949 115.387C139.726 113.759 139.96 111.444 142.084 109.397Z" fill="#353A3B"/>
<path d="M62.9844 75.8695C61.659 73.8816 61.872 71.244 63.4996 69.4946C65.1271 67.7452 67.7429 67.342 69.822 68.52C71.6779 69.5719 72.6953 71.6575 72.3811 73.7676C72.067 75.8773 70.4865 77.5762 68.4043 78.0422C66.3222 78.508 64.168 77.6443 62.9844 75.8695Z" fill="#CC9535"/>
<path d="M62.9844 75.8694C61.659 73.8816 61.872 71.244 63.4996 69.4946C65.1271 67.7452 67.7429 67.342 69.822 68.52C66.8429 69.9286 67.177 68.6556 64.1391 71.5267C63.8118 72.6265 63.3785 75.4323 62.9844 75.8694Z" fill="#C2862B"/>
<path d="M183.225 145.271C180.26 140.074 186.422 135.001 190.384 139.252C196.065 145.379 185.283 149.436 183.225 145.271Z" fill="#CC9535"/>
<path d="M183.225 145.271C180.26 140.074 186.422 135.001 190.384 139.252L185.963 139.693C183.054 142.802 184.162 143.895 183.225 145.271Z" fill="#C2862B"/>
<path d="M209.378 88.0773C222.744 92.2253 235.766 95.684 249.754 97.1899C256.736 97.9411 259.418 98.4301 261.472 105.687C261.61 112.09 257.537 117.859 251.049 117.098C243.075 116.164 225.62 115.294 218.549 112.258C218.08 111.413 218.279 110.598 218.364 109.592C218.361 105.761 217.021 104.995 214.008 103.056C208.574 99.5585 207.68 94.068 209.378 88.0773Z" fill="#EAB448"/>
<path d="M261.472 105.687C261.61 112.09 257.537 117.859 251.049 117.098C243.075 116.164 225.62 115.294 218.549 112.258C218.08 111.413 218.279 110.598 218.364 109.592C228.487 111.097 243.333 115.238 253.218 112.026C255.634 111.241 260.421 108.004 261.472 105.687Z" fill="#CC9535"/>
<path d="M3.50955 105.142C4.38653 102.939 6.25735 99.8004 8.68423 99.1284C15.3026 97.2961 22.8058 97.04 29.5918 95.4716C33.0344 94.6761 36.4635 93.7682 39.6679 93.1951C42.5578 95.3556 45.8471 96.5989 47.786 99.8034C49.4063 102.481 50.105 106.344 49.1131 109.367L48.5069 112.026C42.9252 114.524 18.748 118.087 11.9435 117.648C9.73049 117.505 6.96447 115.761 5.65644 113.902C3.52692 110.877 3.04346 108.718 3.50955 105.142Z" fill="#EAB448"/>
<path d="M3.50955 105.142C3.53225 106.439 5.07655 108.659 6.10376 109.483C14.637 116.328 29.51 113.017 39.4894 111.511C42.0589 111.123 47.3289 109.298 49.1131 109.367L48.5069 112.026C42.9252 114.524 18.748 118.087 11.9435 117.648C9.73049 117.505 6.96447 115.761 5.65644 113.902C3.52692 110.877 3.04346 108.718 3.50955 105.142Z" fill="#CC9535"/>
<path d="M146.712 172.252C151.722 171.81 156.968 171.283 161.969 170.957C166.75 170.645 170.422 170.622 175.273 169.879C175.161 170.814 174.954 171.733 174.766 172.657C174.234 179.567 166.495 189.817 159.058 188.768C157.903 188.605 156.287 188.22 155.305 188.159C148.131 185.09 147.525 179.017 146.712 172.252Z" fill="#EAB448"/>
<path d="M146.712 172.252C151.722 171.81 156.968 171.283 161.969 170.957C166.75 170.645 170.422 170.622 175.273 169.879C175.161 170.814 174.954 171.733 174.766 172.657C174.188 172.036 173.65 172.159 172.827 172.385C169.821 173.212 166.922 174.349 163.909 175.162C160.473 176.057 157.021 176.891 153.556 177.666C152.22 183.828 155.114 184.814 155.305 188.159C148.131 185.09 147.525 179.017 146.712 172.252Z" fill="#CC9535"/>
<path d="M97.0657 172.972C96.7717 172.112 96.4734 171.806 96.7571 171.152C98.6223 171.156 100.483 171.285 102.34 171.45C109.918 172.121 117.519 172.217 125.116 172.552C124.283 178.582 123.028 187.413 115.39 188.338C104.989 190.386 99.4177 181.762 97.0657 172.972Z" fill="#EAB448"/>
<path d="M97.0657 172.972C96.7717 172.112 96.4734 171.806 96.7571 171.152C98.6223 171.156 100.483 171.285 102.34 171.45C109.918 172.121 117.519 172.217 125.116 172.552C124.283 178.582 123.028 187.413 115.39 188.338C117.508 183.947 119.387 183.401 118.175 177.397C112.795 176.698 102.454 174.64 97.6909 172.38L97.4185 172.247L97.0657 172.972Z" fill="#CC9535"/>
</svg>
