<svg width="93" height="81" viewBox="0 0 93 81" fill="none" xmlns="http://www.w3.org/2000/svg">
<path d="M10.22 38.0356C10.2256 35.9004 10.2508 33.7654 10.2901 31.6305C10.6012 20.4308 18.5946 19.695 26.8907 15.4545C31.4591 13.1965 36.1313 11.1299 40.739 8.9535C44.4245 7.23579 47.8187 5.46203 52.0116 5.71591C56.58 5.91878 60.3245 7.93521 64.0549 10.331C74.0327 16.7398 75.1565 23.7746 74.596 35.1626C71.9923 36.885 72.1156 36.9529 71.0505 39.8253C73.2255 39.0262 79.5792 35.0124 81.0647 35.658C91.4712 40.1798 79.2429 47.1316 74.5539 49.8027C74.6857 65.4543 75.1874 67.4825 58.5588 69.3185C58.4298 71.2576 58.4186 71.7774 57.6787 73.5839C58.9595 74.8755 67.0734 74.7558 67.6508 77.0659C64.111 81.8685 22.908 81.3268 21.0722 76.8865C22.4147 74.9026 28.6199 75.1004 30.0353 73.8779C29.3935 72.2977 28.9255 71.2237 28.5415 69.5402C26.5964 69.4791 24.6513 69.3928 22.709 69.2807C9.21381 68.3745 9.61182 61.3341 10.433 49.8562C5.68799 46.7388 -6.57119 40.1983 4.49681 35.3355C6.8427 36.0293 8.18522 36.8074 10.22 38.0356Z" fill="#080B09"/>
<path d="M46.1342 71.9744C47.0143 75.2658 49.1304 78.4339 53.0178 77.6773C55.5094 77.1923 56.325 74.6902 57.6787 73.584C58.9596 74.8755 67.0735 74.7558 67.6508 77.0659C64.111 81.8685 22.908 81.3268 21.0722 76.8866C22.4147 74.9026 28.62 75.1005 30.0353 73.8779C31.773 76.5817 32.555 77.1032 35.5427 78.0181C38.2502 77.229 40.0859 76.2468 40.9183 73.4097L41.207 73.8748C42.4823 74.4916 44.4106 74.4711 45.6242 73.7277C46.1286 73.4189 46.0698 72.5474 46.1342 71.9744Z" fill="#E0E3E5"/>
<path d="M40.9183 73.4097C40.9323 72.2378 40.9099 71.66 41.1846 70.5131C42.6589 69.3973 43.6959 69.8224 45.3943 70.3651C45.8848 70.5215 45.9997 71.4767 46.1342 71.9744C46.0698 72.5474 46.1286 73.4189 45.6241 73.7277C44.4106 74.4711 42.4823 74.4916 41.207 73.8748L40.9183 73.4097Z" fill="white"/>
<path d="M11.868 29.5869C11.4729 24.3552 15.7834 21.6464 19.9287 19.7659C29.1273 15.6041 38.4716 10.7444 47.8832 7.15902C52.5637 5.37517 60.0386 8.6691 63.8279 11.4326C67.1828 13.8808 69.1279 15.8933 71.5354 19.2295C72.1801 20.4115 72.2641 20.6766 72.6005 21.9866C73.7048 25.9771 73.7748 30.1066 73.8225 34.2426C71.9727 35.5809 70.8123 36.6656 69.8566 38.7972C69.6632 40.3059 69.9323 41.1118 70.4368 42.5619C71.5971 43.8716 72.3006 44.7072 73.6767 45.8247C73.7692 50.1218 74.5624 61.6885 71.6111 64.7118C68.0404 68.3669 46.6528 69.2123 41.1931 69.1664C36.633 69.128 16.571 68.4171 13.8383 65.6236C13.0003 64.7645 12.4846 63.8465 12.025 62.7475C11.4056 59.5023 11.5737 53.9333 11.6494 50.5506C15.8759 48.2279 15.3042 45.723 14.0514 41.6291C13.4067 41.1157 12.3249 40.4345 11.613 39.9584C11.5681 36.9977 11.456 32.4456 11.868 29.5869Z" fill="#EAB448"/>
<path d="M11.868 29.5869C11.4729 24.3552 15.7834 21.6464 19.9287 19.7659C29.1272 15.6041 38.4716 10.7444 47.8832 7.15902C52.5637 5.37517 60.0386 8.6691 63.8279 11.4326C67.1828 13.8808 69.1279 15.8933 71.5354 19.2295C70.6694 19.9203 69.7921 20.5953 68.9037 21.2541L67.7237 21.211C59.6406 21.0837 51.6669 22.2525 43.595 22.9315C40.299 23.2089 35.1588 23.1139 32.2495 23.5393C28.1519 22.9937 28.1603 18.3996 22.7118 24.1039C21.885 24.2008 20.3603 24.3396 19.6148 24.52C18.6758 24.6411 17.5492 24.7576 16.6467 24.9616C10.7778 27.0893 13.4067 32.331 11.9717 35.644C11.9745 34.2124 12.0474 30.8742 11.868 29.5869Z" fill="#FCD277"/>
<path d="M50.4729 9.81573C51.8182 9.51057 56.1708 9.59212 56.1204 11.5346C55.5234 12.2348 54.8788 12.2704 53.9567 12.4918C52.0424 12.7642 48.5698 13.1032 47.4459 11.1089L47.701 10.5872C48.5782 9.91213 49.3658 9.93398 50.4729 9.81573Z" fill="#EAB448"/>
<path d="M36.5377 16.5437C38.1576 16.4778 39.3797 16.1965 40.198 17.75L39.8757 18.4284C38.9452 19.0976 38.5865 19.1315 37.4822 19.3999C36.0304 19.3481 34.0348 19.2968 33.3874 17.755L33.6705 17.191C34.5253 16.5454 35.4586 16.6087 36.5377 16.5437Z" fill="#EAB448"/>
<path d="M59.9153 15.8521C61.2326 15.8053 61.7791 15.6865 62.7769 16.6023L62.7208 17.0408L61.9865 17.1764C60.801 17.0467 60.1003 17.3944 58.9119 17.0775L58.9484 16.6471L59.9153 15.8521Z" fill="#CC9535"/>
<path d="M70.4368 42.5619C71.5971 43.8716 72.3006 44.7072 73.6767 45.8247C73.7692 50.1218 74.5624 61.6885 71.6111 64.7118C68.0404 68.3669 46.6528 69.2123 41.193 69.1664C36.633 69.128 16.571 68.4171 13.8383 65.6236C13.0003 64.7645 12.4846 63.8465 12.025 62.7475C15.3042 62.8697 17.3221 63.6105 20.436 64.1452C29.9513 65.7786 40.7474 65.5552 50.372 64.9578C52.2779 64.8393 55.5935 64.1175 57.6058 63.8056C60.1311 63.4144 63.5028 63.2087 65.5404 61.8073C71.3308 57.8263 69.1447 49.4053 70.3947 42.7802L70.4368 42.5619Z" fill="#CC9535"/>
<path d="M32.2495 23.5393C35.1587 23.1139 40.299 23.2089 43.595 22.9315C51.6668 22.2525 59.6406 21.0837 67.7237 21.2109C67.0847 21.9852 67.1492 21.9574 65.8515 22.0437C54.4023 22.8056 42.9615 23.5395 31.5376 24.6954C28.7517 27.5998 26.7365 29.2651 23.2779 25.8911C23.0621 25.6815 22.8519 25.4688 22.6417 25.2533C21.1815 25.246 17.6753 25.4912 16.6467 24.9616C17.5491 24.7576 18.6758 24.6411 19.6148 24.52C20.3603 24.3395 21.885 24.2008 22.7118 24.1039C28.1603 18.3995 28.1519 22.9937 32.2495 23.5393Z" fill="#C2862B"/>
<path d="M22.7118 24.1039C28.1603 18.3995 28.1519 22.9937 32.2495 23.5393C29.2281 24.1409 29.7887 26.8926 27.6025 26.959C23.7348 27.0767 24.542 24.1095 19.6147 24.52C20.3603 24.3395 21.885 24.2008 22.7118 24.1039Z" fill="#EAB448"/>
<path d="M71.5354 19.2295C72.1801 20.4115 72.2641 20.6766 72.6005 21.9866C73.7048 25.9771 73.7748 30.1066 73.8225 34.2426C71.9727 35.5809 70.8123 36.6656 69.8566 38.7972C69.9939 35.9867 70.1705 33.4661 70.717 30.6488C71.3196 30.0646 71.3224 29.8976 71.0225 29.1864C67.6116 27.9678 71.1347 27.124 71.2524 24.7316C70.5461 24.0024 70.7198 24.2109 69.624 23.9229L69.6099 23.746C69.5539 23.2848 69.0662 21.7859 68.9037 21.2541C69.7922 20.5953 70.6694 19.9203 71.5354 19.2295Z" fill="#CC9535"/>
<path d="M69.624 23.9229C70.7198 24.2109 70.5461 24.0024 71.2524 24.7316C71.1346 27.124 67.6116 27.9678 71.0225 29.1864C71.3224 29.8976 71.3196 30.0646 70.717 30.6489C69.6128 30.4723 68.0993 30.3415 67.2052 29.7525C67.1071 28.865 68.018 27.5531 68.5113 26.6197C68.4104 25.5955 67.8358 25.867 67.1267 24.6809C67.6508 24.1157 68.7831 24.0672 69.624 23.9229Z" fill="#89AB9D"/>
<path d="M27.1766 44.2494C29.1833 44.1894 32.1346 44.6422 31.7114 47.2653C30.764 48.7297 29.6738 48.8939 28.0146 49.3664C26.1732 49.4675 24.0234 48.8953 23.3284 47.0005C23.519 44.5876 25.1306 44.6024 27.1766 44.2494Z" fill="#F6935B"/>
<path d="M57.6199 44.2959C59.9013 43.9224 62.2976 43.9484 63.87 45.9267C64.2315 47.9238 62.7404 48.2688 61.1317 48.9399C59.0633 49.1607 54.7975 48.8065 55.2936 45.8822C55.8738 44.9819 56.6389 44.7473 57.6199 44.2959Z" fill="#F6935B"/>
<path d="M21.0161 55.709C22.723 55.3543 24.399 56.4356 24.7802 58.1376C25.1614 59.8394 24.1048 61.5319 22.4091 61.9388C21.288 62.2078 20.1109 61.8519 19.3261 61.0079C18.5413 60.1639 18.2723 58.9629 18.6226 57.865C18.9729 56.7671 19.8866 55.9433 21.0161 55.709Z" fill="#CC9535"/>
<path d="M42.9027 44.4038C44.5899 44.0188 46.2688 45.0841 46.6387 46.7758C47.0115 48.4674 45.9297 50.1364 44.234 50.4912C42.5608 50.842 40.9156 49.778 40.5512 48.1074C40.1868 46.437 41.2351 44.784 42.9027 44.4038Z" fill="#353A3B"/>
<path d="M62.7208 27.2566C66.1401 27.5001 67.7573 29.155 65.0163 32.0281C61.4147 32.4422 60.1591 29.8472 62.7208 27.2566Z" fill="#CC9535"/>
<path d="M26.9719 37.8759C28.505 38.3946 28.7349 40.7865 31.1368 40.907C33.6313 41.0319 33.5836 39.676 35.3353 38.1768L35.7894 38.3735L36.0893 39.2568C32.5158 44.0403 26.0639 42.243 26.9719 37.8759Z" fill="#080B09"/>
<path d="M59.3632 37.6248C60.075 38.2205 59.8648 37.9047 60.1199 38.8533C59.1417 42.8225 54.2033 43.1106 51.3838 39.908C51.1792 39.2265 51.1848 39.1808 51.2044 38.4621L51.5351 38.3368C54.6938 41.2738 57.2135 42.6367 59.3632 37.6248Z" fill="#080B09"/>
<path d="M19.9427 30.2801C21.3637 30.9523 21.8934 31.3881 22.1317 32.9589C21.686 34.1356 21.8065 33.7996 20.7639 34.6789C20.0632 34.5195 19.7746 34.4009 19.1075 34.1224C17.8351 32.4966 18.7712 31.6885 19.9427 30.2801Z" fill="#CC9535"/>
<path d="M63.0263 56.7055C65.4451 56.5704 65.5068 59.1658 63.7551 60.8244C62.3817 60.4175 61.6642 60.397 61.2999 58.9354C61.4961 57.9581 62.278 57.4041 63.0263 56.7055Z" fill="#CC9535"/>
<path d="M2.30231 37.7134C6.09441 34.8409 10.3069 39.2879 12.6332 42.1363C14.2195 44.0784 14.3541 46.4987 12.8826 48.5114L12.2156 48.9892C11.5822 48.9763 11.0356 48.7549 10.5087 48.4145C6.98285 46.1394 -1.01893 42.9923 2.30231 37.7134Z" fill="#EAB448"/>
<path d="M12.8826 48.5114L12.2156 48.9892C11.5822 48.9763 11.0356 48.7549 10.5087 48.4145C6.98285 46.1394 -1.01893 42.9923 2.30231 37.7133C2.72272 41.1034 3.86342 42.3588 6.59328 44.5579C8.00866 45.6961 11.2823 47.9261 12.8826 48.5114Z" fill="#CC9535"/>
<path d="M74.8314 48.3139C74.4362 44.0821 72.9536 44.8073 71.6812 41.4985C72.8247 40.1742 77.8247 37.216 79.7334 36.8481C82.4408 36.3269 83.3938 37.8574 83.8142 40.3191C82.8417 43.5385 80.7648 44.5041 77.9901 46.2812C77.1185 46.9958 75.8208 47.7196 74.8314 48.3139Z" fill="#EAB448"/>
<path d="M77.9901 46.2812C78.8618 43.8052 81.3646 41.2757 83.8142 40.3191C82.8417 43.5385 80.7648 44.5041 77.9901 46.2812Z" fill="#CC9535"/>
<path d="M56.112 69.5343L57.1294 69.5365C58.8054 72.2854 52.2834 80.8631 47.785 74.0045C47.5216 73.3763 47.1825 70.8743 47.0535 70.0633C49.6797 69.8414 53.5839 69.3989 56.112 69.5343Z" fill="#EAB448"/>
<path d="M47.0535 70.0633C49.6797 69.8414 53.5839 69.3989 56.112 69.5343C55.501 70.0782 54.7274 70.8149 54.0716 71.2682C49.0323 71.5524 51.025 72.0377 47.785 74.0045C47.5216 73.3763 47.1825 70.8743 47.0535 70.0633Z" fill="#C2862B"/>
<path d="M30.1531 71.5927C29.9569 70.7566 29.7214 70.4601 30.0381 69.831C31.476 69.7338 39.2731 69.9179 40.0747 70.6134L40.0635 71.2764C38.9985 78.5698 32.9026 78.0637 30.1531 71.5927Z" fill="#EAB448"/>
<path d="M30.1531 71.5927C29.9569 70.7566 29.7214 70.4601 30.0381 69.831C31.476 69.7338 39.2731 69.9179 40.0747 70.6134L40.0635 71.2764L39.9402 71.1214C39.9066 71.1096 30.5623 71.5078 30.1531 71.5927Z" fill="#CC9535"/>
<path d="M73.6347 0.206599C75.8713 0.131501 81.4767 -0.716425 82.3876 1.67465C82.1298 3.53051 78.1331 7.82732 76.6112 10.0396C78.3853 9.96704 82.1774 9.48844 83.0827 11.1585C82.8585 11.8221 82.7295 11.8638 82.169 12.3349C79.9857 12.5069 73.8421 13.1452 72.735 11.2291C72.749 9.61901 77.1857 4.60906 78.447 2.95355C76.7009 3.08245 73.8813 3.59272 72.8135 2.01147C72.9676 0.841568 72.8892 1.21229 73.6347 0.206599Z" fill="#74BCCA"/>
<path d="M86.1405 10.9245C87.8894 10.8427 91.02 10.2915 92.0094 11.9669C92.172 13.7166 89.1814 16.8135 87.9342 18.4105C89.3524 18.3953 91.8497 18.1457 92.7605 19.35C92.399 20.0892 92.5223 19.8564 91.7656 20.3776C89.8121 20.518 86.6254 21.1238 85.2576 19.5689C85.0754 18.0316 88.321 14.4989 89.4841 12.9499C88.1276 13.0396 85.835 13.2915 84.9998 12.0336C85.2296 11.3855 85.5127 11.3123 86.1405 10.9245Z" fill="#74BCCA"/>
<path d="M80.8966 20.727C79.6634 20.6724 78.3069 20.741 77.2783 20.0962L77.2194 19.6611C78.4862 18.5856 81.586 18.2098 82.8921 19.4621C82.9173 20.7668 80.1539 23.3549 79.0636 24.5769C80.5182 24.5833 81.4151 24.5954 82.8501 24.7845L82.8725 25.4427C82.4521 25.6333 82.4773 25.6745 82.0401 25.7053C80.322 26.0449 78.4106 25.8009 76.6757 25.6302C77.9649 23.9355 79.257 22.067 80.8966 20.727Z" fill="#74BCCA"/>
<path d="M82.85 24.7845L82.8725 25.4428C82.4521 25.6333 82.4773 25.6745 82.0401 25.7053C81.0367 25.6426 79.9632 25.6641 79.0663 25.2441C79.9969 24.8778 81.7878 24.8521 82.85 24.7845Z" fill="#62A5B1"/>
</svg>
